<svg width="23" height="25" viewBox="0 0 23 25" fill="none" xmlns="http://www.w3.org/2000/svg">
<path d="M11.3261 12.0426C13.1504 12.0426 14.73 11.4492 16.021 10.2785C17.3115 9.10797 17.9661 7.67574 17.9661 6.02112C17.9661 4.36706 17.3117 2.93465 16.0208 1.76372C14.7298 0.593376 13.1502 0 11.3261 0C9.50147 0 7.92212 0.593376 6.63135 1.76392C5.34057 2.93446 4.68604 4.36687 4.68604 6.02112C4.68604 7.67574 5.34057 9.10816 6.63135 10.2787C7.92254 11.449 9.5021 12.0426 11.3261 12.0426ZM7.77384 2.7998C8.76427 1.90163 9.92612 1.46503 11.3261 1.46503C12.7258 1.46503 13.8878 1.90163 14.8785 2.7998C15.8689 3.69816 16.3505 4.75197 16.3505 6.02112C16.3505 7.29065 15.8689 8.34427 14.8785 9.24263C13.8878 10.141 12.7258 10.5776 11.3261 10.5776C9.92654 10.5776 8.76469 10.1408 7.77384 9.24263C6.7832 8.34446 6.30155 7.29065 6.30155 6.02112C6.30155 4.75197 6.7832 3.69816 7.77384 2.7998Z" fill="#313038"/>
<path d="M22.9443 19.224C22.907 18.7368 22.8317 18.2054 22.7209 17.6443C22.609 17.079 22.4649 16.5445 22.2925 16.056C22.1141 15.5512 21.872 15.0526 21.5723 14.5748C21.2617 14.0789 20.8965 13.6471 20.4868 13.2917C20.0584 12.92 19.5338 12.6211 18.9272 12.4031C18.3228 12.1862 17.6529 12.0764 16.9363 12.0764C16.6549 12.0764 16.3827 12.1811 15.8571 12.4914C15.5336 12.6827 15.1553 12.904 14.7329 13.1487C14.3718 13.3573 13.8826 13.5528 13.2783 13.7298C12.6888 13.9028 12.0902 13.9906 11.4992 13.9906C10.9086 13.9906 10.31 13.9028 9.72001 13.7298C9.11637 13.553 8.62695 13.3575 8.26645 13.1489C7.84811 12.9064 7.46952 12.6852 7.1412 12.4912C6.61602 12.1809 6.34386 12.0762 6.06244 12.0762C5.34565 12.0762 4.67597 12.1862 4.0717 12.4033C3.46554 12.6209 2.94078 12.9198 2.51192 13.2919C2.10221 13.6474 1.73708 14.0791 1.42664 14.5748C1.12735 15.0526 0.885052 15.551 0.706696 16.0562C0.534439 16.5447 0.390365 17.079 0.278472 17.6443C0.16742 18.2047 0.0923332 18.7363 0.0551055 19.2245C0.0185087 19.7019 0 20.1988 0 20.7008C0 22.0058 0.457459 23.0623 1.35955 23.8415C2.25049 24.6103 3.42916 25.0002 4.86295 25.0002H18.1371C19.5704 25.0002 20.7491 24.6103 21.6402 23.8415C22.5425 23.0629 23 22.006 23 20.7006C22.9998 20.1969 22.9811 19.7 22.9443 19.224ZM20.5264 22.78C19.9377 23.2881 19.1561 23.5351 18.1368 23.5351H4.86295C3.8435 23.5351 3.06193 23.2881 2.47343 22.7802C1.89609 22.2818 1.61551 21.6015 1.61551 20.7008C1.61551 20.2324 1.63255 19.7698 1.66662 19.3258C1.69986 18.8902 1.76779 18.4116 1.86854 17.9031C1.96802 17.4009 2.09464 16.9296 2.24523 16.5029C2.38972 16.0938 2.5868 15.6887 2.8312 15.2984C3.06445 14.9265 3.33283 14.6074 3.62897 14.3503C3.90597 14.1098 4.25511 13.9129 4.6665 13.7653C5.04698 13.6288 5.47458 13.554 5.93877 13.5427C5.99535 13.57 6.09609 13.6221 6.2593 13.7186C6.59141 13.9149 6.9742 14.1388 7.39738 14.3839C7.8744 14.6597 8.48897 14.9088 9.22322 15.1237C9.97387 15.3438 10.7395 15.4556 11.4994 15.4556C12.2593 15.4556 13.0251 15.3438 13.7753 15.1239C14.5102 14.9086 15.1245 14.6597 15.6022 14.3835C16.0353 14.1325 16.4073 13.915 16.7394 13.7186C16.9026 13.6223 17.0034 13.57 17.06 13.5427C17.5244 13.554 17.952 13.6288 18.3327 13.7653C18.7438 13.9129 19.093 14.11 19.37 14.3503C19.6661 14.6072 19.9345 14.9263 20.1677 15.2986C20.4124 15.6887 20.6096 16.094 20.7539 16.5027C20.9047 16.93 21.0316 17.4011 21.1308 17.9029C21.2314 18.4124 21.2995 18.8911 21.3327 19.326V19.3264C21.367 19.7687 21.3843 20.231 21.3845 20.7008C21.3843 21.6017 21.1037 22.2818 20.5264 22.78Z" fill="#313038"/>
</svg>
