<svg width="26" height="26" viewBox="0 0 26 26" fill="none" xmlns="http://www.w3.org/2000/svg">
<g clip-path="url(#clip0)">
<path d="M22.8617 20.691C22.7853 20.6414 22.2101 20.2384 21.6341 19.0194C20.5764 16.7809 20.3544 13.6275 20.3544 11.3763C20.3544 11.3665 20.3542 11.3568 20.3538 11.347C20.3423 8.3718 18.5607 5.80704 16.0113 4.65629V2.89636C16.0113 1.29929 14.7141 0 13.1197 0H12.8801C11.2857 0 9.9885 1.29929 9.9885 2.89636V4.65618C7.43054 5.81064 5.64543 8.3885 5.64543 11.3763C5.64543 13.6275 5.42341 16.7808 4.36569 19.0194C3.78978 20.2384 3.21458 20.6413 3.13811 20.691C2.81605 20.84 2.65726 21.1843 2.73135 21.5332C2.80615 21.8856 3.13552 22.1285 3.4952 22.1285H9.07844C9.10962 24.2685 10.8562 26 12.9999 26C15.1437 26 16.8902 24.2685 16.9214 22.1285H22.5047C22.8643 22.1285 23.1937 21.8856 23.2685 21.5332C23.3425 21.1843 23.1837 20.84 22.8617 20.691ZM11.512 2.89636C11.512 2.14068 12.1257 1.52593 12.8801 1.52593H13.1198C13.8742 1.52593 14.4879 2.14068 14.4879 2.89636V4.16168C14.0071 4.0623 13.5094 4.00999 12.9997 4.00999C12.4902 4.00999 11.9926 4.06225 11.512 4.16152V2.89636H11.512ZM12.9999 24.4741C11.6962 24.4741 10.6328 23.4271 10.6019 22.1286H15.3979C15.367 23.4271 14.3036 24.4741 12.9999 24.4741ZM16.0671 20.6026C16.067 20.6026 5.23116 20.6026 5.23116 20.6026C5.36293 20.3972 5.49705 20.1647 5.63035 19.9019C6.65125 17.8888 7.16892 15.0203 7.16892 11.3763C7.16892 8.15587 9.78461 5.53592 12.9997 5.53592C16.2147 5.53592 18.8304 8.15588 18.8304 11.3788C18.8304 11.3882 18.8306 11.3975 18.8309 11.4069C18.8338 15.0363 19.3514 17.8944 20.3695 19.9019C20.5028 20.1647 20.637 20.3972 20.7687 20.6026H16.0671Z" fill="#313038"/>
</g>
<circle cx="19.5" cy="9.5" r="3.5" fill="#F14444"/>
<defs>
<clipPath id="clip0">
<rect width="26" height="26" fill="white"/>
</clipPath>
</defs>
</svg>
