<svg width="20" height="18" viewBox="0 0 20 18" fill="none" xmlns="http://www.w3.org/2000/svg">
<path fill-rule="evenodd" clip-rule="evenodd" d="M15.6658 4.86484C15.2525 4.419 15 3.8215 15 3.1665C15 1.7865 16.12 0.666504 17.5 0.666504C18.88 0.666504 20 1.7865 20 3.1665C20 4.5465 18.88 5.6665 17.5 5.6665C17.3783 5.6665 17.2583 5.65817 17.1408 5.64067L14.3633 10.6673C14.7592 11.109 15 11.6932 15 12.3332C15 13.7132 13.88 14.8332 12.5 14.8332C11.12 14.8332 10 13.7132 10 12.3332C10 11.8473 10.1392 11.394 10.3792 11.0107L8.24167 8.05484C8.0075 8.12734 7.75833 8.1665 7.5 8.1665L7.19333 8.14817L4.3975 13.2057C4.77333 13.6432 5 14.2123 5 14.8332C5 16.2132 3.88 17.3332 2.5 17.3332C1.12 17.3332 0 16.2132 0 14.8332C0 13.4532 1.12 12.3332 2.5 12.3332C2.655 12.3332 2.80583 12.3473 2.9525 12.374L5.70083 7.4015C5.2675 6.95234 5 6.34067 5 5.6665C5 4.2865 6.12 3.1665 7.5 3.1665C8.88 3.1665 10 4.2865 10 5.6665C10 6.18067 9.84417 6.659 9.5775 7.05734L11.6833 9.96984C11.9392 9.8815 12.2142 9.83317 12.5 9.83317C12.6367 9.83317 12.7708 9.844 12.9017 9.86567L15.6658 4.86484ZM12.5 11.4998C12.96 11.4998 13.3333 11.8732 13.3333 12.3332C13.3333 12.7932 12.96 13.1665 12.5 13.1665C12.04 13.1665 11.6667 12.7932 11.6667 12.3332C11.6667 11.8732 12.04 11.4998 12.5 11.4998ZM7.5 4.83317C7.96 4.83317 8.33333 5.2065 8.33333 5.6665C8.33333 6.1265 7.96 6.49984 7.5 6.49984C7.04 6.49984 6.66667 6.1265 6.66667 5.6665C6.66667 5.2065 7.04 4.83317 7.5 4.83317Z" fill="#313038"/>
</svg>
